<?xml version="1.0" encoding="utf-8"?>
<!-- Generator: Adobe Illustrator 22.1.0, SVG Export Plug-In . SVG Version: 6.00 Build 0)  -->
<svg version="1.1" id="Layer_1" xmlns="http://www.w3.org/2000/svg" xmlns:xlink="http://www.w3.org/1999/xlink" x="0px" y="0px"
	 viewBox="0 0 2868.4 2005.3" style="enable-background:new 0 0 2868.4 2005.3;" xml:space="preserve">
<style type="text/css">
	.st0{fill:#FFFFFF;}
	.st1{fill:none;stroke:#25BDC1;stroke-width:12;stroke-linecap:round;stroke-linejoin:round;stroke-miterlimit:10;}
	.st2{fill:#FFFFFF;stroke:#000000;stroke-linecap:round;stroke-linejoin:round;stroke-miterlimit:10;}
	.st3{fill:#FFFFFF;stroke:#000000;stroke-width:3;stroke-linecap:round;stroke-linejoin:round;stroke-miterlimit:10;}
	.st4{fill:none;stroke:#006A91;stroke-width:12;stroke-linecap:round;stroke-linejoin:round;stroke-miterlimit:10;}
</style>
<g id="IN_DEVELOPMENT">
	<rect x="2204.1" y="747.3" class="st0" width="63.8" height="15.5"/>
	<g id="Finch_West_LRT">
		<polyline class="st1" points="634.2,512.6 634.2,478.1 718,478.1 752.5,448.3 1180.4,448.3 		"/>
		<g>
			<path d="M1192.1,430v2.9h3v1.4h-3v4h-1.8v-9.7h5.5l-0.2,1.4L1192.1,430L1192.1,430z"/>
			<path d="M1197.1,438.3v-9.7h1.9v9.7H1197.1z"/>
			<path d="M1206,438.3l-3.3-7.8c0.1,0.7,0.1,1.3,0.2,1.9c0,0.6,0.1,1.2,0.1,2v3.9h-1.7v-9.7h2.3l3.4,7.8c-0.1-0.4-0.1-0.9-0.2-1.5
				s-0.1-1.2-0.1-1.8v-4.5h1.7v9.7H1206z"/>
			<path d="M1215.9,428.7c0.4,0.2,0.9,0.4,1.3,0.8l-1,1.1c-0.6-0.5-1.1-0.7-1.8-0.7c-0.7,0-1.3,0.3-1.7,0.9s-0.6,1.5-0.6,2.7
				s0.2,2.1,0.6,2.7s1,0.9,1.8,0.9c0.4,0,0.7-0.1,1-0.2s0.6-0.3,1-0.6l0.9,1.1c-0.3,0.3-0.7,0.6-1.2,0.8c-0.5,0.2-1.1,0.3-1.7,0.3
				c-0.8,0-1.6-0.2-2.2-0.6s-1.1-1-1.5-1.7c-0.4-0.8-0.5-1.7-0.5-2.8c0-1.1,0.2-2,0.6-2.7c0.4-0.8,0.9-1.3,1.5-1.7
				c0.6-0.4,1.3-0.6,2.1-0.6C1214.9,428.5,1215.4,428.5,1215.9,428.7z"/>
			<path d="M1220.4,434v4.3h-1.8v-9.7h1.8v3.9h3.4v-3.9h1.9v9.7h-1.9V434H1220.4z"/>
			<path d="M1237.7,438.3l-1.5-7.7l-1.5,7.7h-2.3l-1.8-9.7h1.8l1.2,8.2l1.6-8.2h2l1.6,8.2l1.3-8.2h1.8l-1.8,9.7H1237.7z"/>
			<path d="M1245.1,430v2.7h3.1v1.4h-3.1v2.8h3.8v1.4h-5.7v-9.7h5.6l-0.2,1.4L1245.1,430L1245.1,430z"/>
			<path d="M1255.2,428.7c0.5,0.2,1,0.5,1.4,0.9l-0.9,1.1c-0.3-0.3-0.7-0.5-1-0.6s-0.7-0.2-1.1-0.2s-0.8,0.1-1.1,0.3
				s-0.4,0.5-0.4,0.8c0,0.2,0.1,0.4,0.2,0.6s0.3,0.3,0.6,0.4c0.3,0.1,0.7,0.3,1.2,0.5c1,0.3,1.7,0.7,2.1,1.1s0.7,1.1,0.7,1.9
				c0,0.6-0.1,1.1-0.4,1.5s-0.7,0.8-1.3,1c-0.6,0.3-1.2,0.4-2,0.4c-0.7,0-1.4-0.1-2-0.4c-0.6-0.2-1.1-0.6-1.5-1l1-1.1
				c0.7,0.7,1.5,1,2.5,1c0.5,0,1-0.1,1.3-0.4s0.5-0.6,0.5-1.1c0-0.3-0.1-0.5-0.2-0.7s-0.3-0.3-0.6-0.5c-0.3-0.1-0.7-0.3-1.2-0.5
				c-1-0.3-1.8-0.7-2.2-1.1c-0.5-0.4-0.7-1-0.7-1.8c0-0.5,0.1-1,0.4-1.4s0.7-0.7,1.2-0.9c0.5-0.2,1.1-0.3,1.7-0.3
				C1254.1,428.5,1254.7,428.6,1255.2,428.7z"/>
			<path d="M1261.8,430.1v8.2h-1.9v-8.2h-2.6v-1.5h7.2l-0.2,1.5H1261.8z"/>
		</g>
		<g>
			<g>
				<circle class="st2" cx="634.2" cy="511.6" r="7"/>
			</g>
		</g>
		<g>
			<g>
				<g>
					<circle class="st3" cx="1173.5" cy="447.6" r="12"/>
				</g>
			</g>
			<circle cx="1173.5" cy="447.6" r="6"/>
		</g>
		<g>
			<g>
				<circle class="st2" cx="634.2" cy="511.6" r="7"/>
			</g>
		</g>
	</g>
	<g id="Eglinton_Crosstown">
		<line class="st4" x1="1152.7" y1="776.8" x2="2279.1" y2="776.8"/>
		<g>
			<path d="M1243.8,796.7v2.7h3.1v1.4h-3.1v2.8h3.8v1.4h-5.7v-9.7h5.6l-0.2,1.4L1243.8,796.7L1243.8,796.7z"/>
			<path d="M1255,795.4c0.5,0.2,1,0.5,1.4,0.8l-1,1c-0.3-0.3-0.7-0.5-1-0.6s-0.7-0.2-1.1-0.2c-0.7,0-1.4,0.3-1.8,0.9
				c-0.5,0.6-0.7,1.5-0.7,2.7c0,1.3,0.2,2.2,0.6,2.8s1,0.9,1.7,0.9c0.6,0,1.1-0.1,1.5-0.4v-2.5h-1.5l-0.2-1.4h3.5v4.7
				c-1,0.6-2.1,1-3.4,1c-1.4,0-2.4-0.4-3.1-1.3c-0.7-0.9-1.1-2.1-1.1-3.8c0-1.1,0.2-2,0.6-2.7c0.4-0.8,0.9-1.3,1.6-1.7
				s1.4-0.6,2.2-0.6C1253.9,795.1,1254.5,795.2,1255,795.4z"/>
			<path d="M1264,803.5l-0.2,1.5h-5.5v-9.7h1.8v8.2H1264z"/>
			<path d="M1265.4,805v-9.7h1.9v9.7H1265.4z"/>
			<path d="M1274.3,805l-3.3-7.8c0.1,0.7,0.1,1.3,0.2,1.9s0.1,1.2,0.1,2v3.9h-1.7v-9.7h2.3l3.4,7.8c-0.1-0.4-0.1-0.9-0.2-1.5
				s-0.1-1.2-0.1-1.8v-4.5h1.7v9.7L1274.3,805L1274.3,805z"/>
			<path d="M1282.4,796.8v8.2h-1.9v-8.2h-2.6v-1.5h7.2l-0.2,1.5H1282.4z"/>
			<path d="M1291.8,795.7c0.6,0.4,1.1,1,1.5,1.7c0.3,0.8,0.5,1.7,0.5,2.7c0,1.1-0.2,2-0.5,2.7c-0.3,0.8-0.8,1.3-1.5,1.7
				c-0.6,0.4-1.4,0.6-2.2,0.6c-0.9,0-1.6-0.2-2.3-0.6c-0.6-0.4-1.1-1-1.5-1.7c-0.3-0.8-0.5-1.7-0.5-2.7s0.2-1.9,0.5-2.7
				s0.8-1.3,1.5-1.7c0.6-0.4,1.4-0.6,2.2-0.6C1290.5,795.1,1291.2,795.3,1291.8,795.7z M1287.9,797.4c-0.4,0.6-0.6,1.5-0.6,2.8
				c0,2.4,0.8,3.6,2.3,3.6c0.7,0,1.3-0.3,1.7-0.9c0.4-0.6,0.6-1.5,0.6-2.8s-0.2-2.2-0.6-2.8s-1-0.9-1.7-0.9
				C1288.8,796.5,1288.3,796.8,1287.9,797.4z"/>
			<path d="M1300.3,805l-3.3-7.8c0.1,0.7,0.1,1.3,0.2,1.9s0.1,1.2,0.1,2v3.9h-1.7v-9.7h2.3l3.4,7.8c-0.1-0.4-0.1-0.9-0.2-1.5
				s-0.1-1.2-0.1-1.8v-4.5h1.7v9.7L1300.3,805L1300.3,805z"/>
			<path d="M1314.6,805l-1.5-7.7l-1.5,7.7h-2.3l-1.8-9.7h1.8l1.2,8.2l1.6-8.2h2l1.6,8.2l1.3-8.2h1.8l-1.8,9.7H1314.6z"/>
			<path d="M1322,796.7v2.7h3.1v1.4h-3.1v2.8h3.8v1.4h-5.7v-9.7h5.6l-0.2,1.4L1322,796.7L1322,796.7z"/>
			<path d="M1332.2,795.4c0.5,0.2,1,0.5,1.4,0.9l-0.9,1.1c-0.3-0.3-0.7-0.5-1-0.6s-0.7-0.2-1.1-0.2s-0.8,0.1-1.1,0.3
				c-0.3,0.2-0.4,0.5-0.4,0.8c0,0.2,0.1,0.4,0.2,0.6c0.1,0.2,0.3,0.3,0.6,0.4c0.3,0.1,0.7,0.3,1.2,0.5c1,0.3,1.7,0.7,2.1,1.1
				s0.7,1.1,0.7,1.9c0,0.6-0.1,1.1-0.4,1.5s-0.7,0.8-1.3,1c-0.6,0.3-1.2,0.4-2,0.4c-0.7,0-1.4-0.1-2-0.4c-0.6-0.2-1.1-0.6-1.5-1
				l1-1.1c0.7,0.7,1.5,1,2.5,1c0.5,0,1-0.1,1.3-0.4c0.3-0.3,0.5-0.6,0.5-1.1c0-0.3-0.1-0.5-0.2-0.7s-0.3-0.3-0.6-0.5
				c-0.3-0.1-0.7-0.3-1.2-0.5c-1-0.3-1.8-0.7-2.2-1.1c-0.5-0.4-0.7-1-0.7-1.8c0-0.5,0.1-1,0.4-1.4s0.7-0.7,1.2-0.9s1.1-0.3,1.7-0.3
				C1331.1,795.1,1331.7,795.2,1332.2,795.4z"/>
			<path d="M1338.8,796.8v8.2h-1.9v-8.2h-2.6v-1.5h7.2l-0.2,1.5H1338.8z"/>
		</g>
		<g>
			<path d="M1687.3,794.5v2.7h3.1v1.4h-3.1v2.8h3.8v1.4h-5.7v-9.7h5.6l-0.2,1.4L1687.3,794.5L1687.3,794.5z"/>
			<path d="M1698.4,793.2c0.5,0.2,1,0.5,1.4,0.8l-1,1c-0.3-0.3-0.7-0.5-1-0.6s-0.7-0.2-1.1-0.2c-0.7,0-1.4,0.3-1.8,0.9
				c-0.5,0.6-0.7,1.5-0.7,2.7c0,1.3,0.2,2.2,0.6,2.8s1,0.9,1.7,0.9c0.6,0,1.1-0.1,1.5-0.4v-2.5h-1.5l-0.2-1.4h3.5v4.7
				c-1,0.6-2.1,1-3.4,1c-1.4,0-2.4-0.4-3.1-1.3c-0.7-0.9-1.1-2.1-1.1-3.8c0-1.1,0.2-2,0.6-2.7s0.9-1.3,1.6-1.7s1.4-0.6,2.2-0.6
				C1697.4,792.9,1698,793,1698.4,793.2z"/>
			<path d="M1707.5,801.3l-0.2,1.5h-5.5v-9.7h1.8v8.2H1707.5z"/>
			<path d="M1708.9,802.8v-9.7h1.9v9.7H1708.9z"/>
			<path d="M1717.7,802.8l-3.3-7.8c0.1,0.7,0.1,1.3,0.2,1.9c0,0.6,0.1,1.2,0.1,2v3.9h-1.7v-9.7h2.3l3.4,7.8
				c-0.1-0.4-0.1-0.9-0.2-1.5s-0.1-1.2-0.1-1.8v-4.5h1.7v9.7L1717.7,802.8L1717.7,802.8z"/>
			<path d="M1725.9,794.6v8.2h-1.9v-8.2h-2.6v-1.5h7.2l-0.2,1.5H1725.9z"/>
			<path d="M1735.3,793.5c0.6,0.4,1.1,1,1.5,1.7c0.3,0.8,0.5,1.7,0.5,2.7c0,1.1-0.2,2-0.5,2.7s-0.8,1.3-1.5,1.7s-1.4,0.6-2.2,0.6
				c-0.9,0-1.6-0.2-2.3-0.6c-0.6-0.4-1.1-1-1.5-1.7c-0.3-0.8-0.5-1.7-0.5-2.7s0.2-1.9,0.5-2.7s0.8-1.3,1.5-1.7
				c0.6-0.4,1.4-0.6,2.2-0.6C1733.9,792.9,1734.7,793.1,1735.3,793.5z M1731.3,795.2c-0.4,0.6-0.6,1.5-0.6,2.8
				c0,2.4,0.8,3.6,2.3,3.6c0.7,0,1.3-0.3,1.7-0.9c0.4-0.6,0.6-1.5,0.6-2.8s-0.2-2.2-0.6-2.8s-1-0.9-1.7-0.9
				S1731.7,794.6,1731.3,795.2z"/>
			<path d="M1743.8,802.8l-3.3-7.8c0.1,0.7,0.1,1.3,0.2,1.9c0,0.6,0.1,1.2,0.1,2v3.9h-1.7v-9.7h2.3l3.4,7.8
				c-0.1-0.4-0.1-0.9-0.2-1.5s-0.1-1.2-0.1-1.8v-4.5h1.7v9.7L1743.8,802.8L1743.8,802.8z"/>
		</g>
		<g>
			<g>
				<g>
					<circle class="st3" cx="1666" cy="776.8" r="12"/>
				</g>
			</g>
			<circle cx="1666" cy="776.8" r="6"/>
		</g>
		<g>
			<g>
				<g>
					<circle class="st3" cx="1347.6" cy="776.8" r="12"/>
				</g>
			</g>
			<circle cx="1347.6" cy="776.8" r="6"/>
		</g>
		<g>
			<g>
				<g>
					<circle class="st3" cx="2280" cy="776.8" r="12"/>
				</g>
			</g>
			<circle cx="2280" cy="776.8" r="6"/>
		</g>
	</g>
	<g>
		<g>
			<path d="M2207.6,760v-9.7h1.8v9.7H2207.6z M2215.1,760h-2.2l-3.4-5.2l3.3-4.5h2l-3.3,4.4L2215.1,760z"/>
			<path d="M2218,751.7v2.7h3.1v1.4h-3.1v2.8h3.8v1.4h-5.7v-9.7h5.6l-0.2,1.4L2218,751.7L2218,751.7z"/>
			<path d="M2228.3,760l-3.3-7.8c0.1,0.7,0.1,1.3,0.2,1.9c0,0.6,0.1,1.2,0.1,2v3.9h-1.7v-9.7h2.3l3.4,7.8c-0.1-0.4-0.1-0.9-0.2-1.5
				s-0.1-1.2-0.1-1.8v-4.5h1.7v9.7L2228.3,760L2228.3,760z"/>
			<path d="M2237.8,760l-3.3-7.8c0.1,0.7,0.1,1.3,0.2,1.9c0,0.6,0.1,1.2,0.1,2v3.9h-1.7v-9.7h2.3l3.4,7.8c-0.1-0.4-0.1-0.9-0.2-1.5
				c-0.1-0.6-0.1-1.2-0.1-1.8v-4.5h1.7v9.7L2237.8,760L2237.8,760z"/>
			<path d="M2244.3,751.7v2.7h3.1v1.4h-3.1v2.8h3.8v1.4h-5.7v-9.7h5.6l-0.2,1.4L2244.3,751.7L2244.3,751.7z"/>
			<path d="M2255.8,751.4c0.9,0.7,1.4,1.9,1.4,3.8c0,1.8-0.4,3.1-1.3,3.8c-0.9,0.7-2,1.1-3.4,1.1h-2.6v-9.7h2.4
				C2253.7,750.3,2254.9,750.7,2255.8,751.4z M2251.7,758.6h0.9c0.8,0,1.5-0.3,1.9-0.8s0.7-1.4,0.7-2.7c0-0.9-0.1-1.6-0.4-2.1
				c-0.2-0.5-0.6-0.8-0.9-1c-0.4-0.2-0.9-0.3-1.4-0.3h-0.9L2251.7,758.6L2251.7,758.6z"/>
			<path d="M2262,760h-1.9v-3.7l-3.1-6h2l2,4.5l2-4.5h2l-3.1,6v3.7H2262z"/>
		</g>
	</g>
</g>
</svg>
